<svg width="174" height="174" viewBox="0 0 174 174" fill="none" xmlns="http://www.w3.org/2000/svg">
<rect x="16" y="16" width="142" height="142" rx="23" stroke="black" stroke-width="8"/>
<path d="M130.684 97.0041H114.434L95.8262 64.8507C92.8745 68.1049 91.0761 72.4068 91.0761 77.1373C91.0761 80.2961 91.8799 83.2645 93.2879 85.8602C93.4311 86.1223 93.5747 86.3761 93.7336 86.63L116.992 126.824C118.749 129.861 122.642 130.902 125.687 129.148C128.731 127.395 129.774 123.512 128.016 120.475L121.783 109.703H130.684C134.2 109.703 137.05 106.86 137.05 103.354C137.05 99.847 134.2 97.0041 130.684 97.0041ZM53.5132 112.085C52.0435 112.085 50.6494 112.398 49.3857 112.954L45.0328 120.475C43.2752 123.511 44.3184 127.395 47.3626 129.148C50.4072 130.902 54.3003 129.861 56.0579 126.824L61.995 116.566C60.1499 113.862 57.04 112.085 53.5132 112.085ZM91.42 97.0041H73.3172L100.217 50.5257C101.975 47.4886 100.932 43.605 97.888 41.8517C94.8433 40.0984 90.9506 41.1387 89.1927 44.1759L86.525 48.7852L83.8572 44.1759C82.0993 41.1387 78.2063 40.0984 75.162 41.8517C72.1177 43.605 71.0743 47.4886 72.8318 50.5257L79.1749 61.4849L58.6175 97.0041H42.3654C38.85 97.0041 36 99.847 36 103.354C36 106.86 38.85 109.703 42.3654 109.703H99.9295C100.379 108.621 100.63 107.436 100.63 106.191C100.629 101.117 96.5062 97.0041 91.42 97.0041Z" fill="black"/>
</svg>
