<svg width="150" height="150" viewBox="0 0 150 150" fill="none" xmlns="http://www.w3.org/2000/svg">
<path fill-rule="evenodd" clip-rule="evenodd" d="M21.2687 0C9.5223 0 0 9.5223 0 21.2687V128.731C0 140.478 9.5223 150 21.2687 150H128.731C140.478 150 150 140.478 150 128.731V21.2687C150 9.5223 140.478 0 128.731 0H21.2687ZM26 10H124C132.837 10 140 17.1634 140 26V124C140 132.837 132.837 140 124 140H26C17.1634 140 10 132.837 10 124V26C10 17.1634 17.1634 10 26 10ZM26 16C20.4772 16 16 20.4772 16 26V124C16 129.523 20.4772 134 26 134H124C129.523 134 134 129.523 134 124V26C134 20.4772 129.523 16 124 16H26ZM118.684 85.0041H102.434L83.8262 52.8507C80.8745 56.1049 79.0761 60.4068 79.0761 65.1373C79.0761 68.2961 79.8799 71.2645 81.2879 73.8602C81.4311 74.1223 81.5747 74.3761 81.7336 74.63L104.992 114.824C106.749 117.861 110.642 118.902 113.687 117.148C116.731 115.395 117.774 111.512 116.016 108.475L109.783 97.7034H118.684C122.2 97.7034 125.05 94.8602 125.05 91.3536C125.05 87.847 122.2 85.0041 118.684 85.0041ZM41.5132 100.085C40.0435 100.085 38.6494 100.398 37.3857 100.954L33.0328 108.475C31.2752 111.511 32.3184 115.395 35.3626 117.148C38.4072 118.902 42.3003 117.861 44.0579 114.824L49.995 104.566C48.1499 101.862 45.04 100.085 41.5132 100.085ZM79.42 85.0041H61.3172L88.2174 38.5257C89.9753 35.4886 88.9322 31.605 85.888 29.8517C82.8433 28.0984 78.9506 29.1387 77.1927 32.1759L74.525 36.7852L71.8572 32.1759C70.0993 29.1387 66.2063 28.0984 63.162 29.8517C60.1177 31.605 59.0743 35.4886 60.8318 38.5257L67.1749 49.4849L46.6175 85.0041H30.3654C26.85 85.0041 24 87.847 24 91.3536C24 94.8602 26.85 97.7034 30.3654 97.7034H87.9295C88.3794 96.6206 88.6301 95.4356 88.6301 94.1911C88.6294 89.117 84.5062 85.0041 79.42 85.0041Z" fill="black"/>
</svg>
